<svg aria-hidden="true" style="position: absolute; width: 0; height: 0; overflow: hidden;" version="1.1" xmlns="http://www.w3.org/2000/svg" xmlns:xlink="http://www.w3.org/1999/xlink">
<defs>
<symbol id="icon-email" viewBox="0 0 24 32">
<path d="M20 8h-16c-1.107 0-2 0.893-2 2v12c0 1.093 0.893 2 2 2h16c1.093 0 2-0.907 2-2v-12c0-1.107-0.907-2-2-2zM19.6 12.24l-7.080 4.427c-0.32 0.2-0.733 0.2-1.053 0l-7.067-4.427c-0.253-0.16-0.4-0.427-0.4-0.72 0-0.667 0.72-1.067 1.293-0.72l6.707 4.2 6.693-4.2c0.573-0.347 1.307 0.053 1.307 0.72 0 0.293-0.16 0.56-0.4 0.72z"></path>
</symbol>
<symbol id="icon-name" viewBox="0 0 32 32">
<path d="M16 16c2.933 0 5.333-2.4 5.333-5.333 0-2.951-2.4-5.333-5.333-5.333-2.951 0-5.333 2.382-5.333 5.333 0 2.933 2.382 5.333 5.333 5.333zM16 18.667c-3.573 0-10.667 1.778-10.667 5.333v1.333c0 0.729 0.587 1.333 1.333 1.333h18.667c0.729 0 1.333-0.604 1.333-1.333v-1.333c0-3.556-7.111-5.333-10.667-5.333z"></path>
</symbol>
<symbol id="icon-phone" viewBox="0 0 24 32">
<path d="M19.627 18.48l-2.453-0.28c-0.587-0.067-1.16 0.133-1.573 0.547l-1.787 1.773c-2.72-1.387-4.96-3.613-6.347-6.347l1.773-1.787c0.427-0.413 0.627-1 0.56-1.587l-0.28-2.427c-0.12-0.973-0.933-1.707-1.92-1.707h-1.667c-1.093 0-2 0.907-1.933 1.987 0.507 8.24 7.093 14.827 15.333 15.333 1.080 0.067 1.987-0.84 1.987-1.933v-1.667c0.013-0.973-0.72-1.787-1.693-1.907z"></path>
</symbol>
</defs>
</svg>
