<svg aria-hidden="true" style="position: absolute; width: 0; height: 0; overflow: hidden;" version="1.1" xmlns="http://www.w3.org/2000/svg" xmlns:xlink="http://www.w3.org/1999/xlink">
<defs>
<symbol id="icon-instagram" viewBox="0 0 32 32">
<path d="M31.96 9.4c-0.080-1.7-0.36-2.88-0.74-3.88-0.42-1.080-1.040-2.040-1.86-2.84-0.8-0.82-1.76-1.44-2.82-1.84-1.020-0.4-2.18-0.68-3.88-0.76-1.72-0.080-2.26-0.1-6.62-0.1-4.34 0-4.88 0.020-6.58 0.1s-2.88 0.36-3.88 0.74c-1.080 0.42-2.040 1.040-2.84 1.86-0.82 0.8-1.44 1.76-1.84 2.82-0.4 1.020-0.68 2.2-0.76 3.9s-0.1 2.24-0.1 6.6c0 4.34 0.020 4.88 0.1 6.58s0.36 2.88 0.74 3.9c0.42 1.060 1.040 2.020 1.86 2.82 0.8 0.82 1.76 1.46 2.82 1.86 1.020 0.38 2.18 0.66 3.88 0.74 1.72 0.080 2.26 0.080 6.6 0.080s4.9 0 6.6-0.080c1.7-0.080 2.86-0.36 3.88-0.74 2.157-0.849 3.831-2.523 4.661-4.625l0.019-0.055c0.4-1.020 0.68-2.2 0.74-3.9 0.080-1.7 0.1-2.24 0.1-6.58 0-4.36 0-4.9-0.080-6.6zM29.080 22.46c-0.080 1.56-0.34 2.4-0.56 2.98-0.54 1.38-1.64 2.5-3.040 3.040-0.56 0.2-1.4 0.48-2.96 0.54-1.68 0.080-2.2 0.1-6.46 0.1-4.28 0-4.78-0.020-6.46-0.1-1.58-0.060-2.42-0.34-2.98-0.54-0.7-0.26-1.32-0.68-1.84-1.2s-0.94-1.14-1.18-1.84c-0.22-0.56-0.5-1.42-0.56-2.98-0.080-1.68-0.1-2.18-0.1-6.46 0-4.26 0.020-4.78 0.1-6.46 0.060-1.56 0.34-2.4 0.56-2.96 0.24-0.7 0.66-1.34 1.2-1.84 0.5-0.54 1.14-0.94 1.82-1.2 0.58-0.22 1.42-0.48 2.98-0.54 1.68-0.080 2.2-0.1 6.46-0.1 4.28 0 4.78 0.020 6.46 0.1 1.56 0.060 2.42 0.32 2.98 0.54 0.68 0.26 1.32 0.66 1.84 1.2 0.52 0.52 0.94 1.14 1.18 1.84 0.22 0.56 0.48 1.4 0.56 2.96 0.080 1.68 0.1 2.2 0.1 6.46 0 4.28-0.020 4.78-0.1 6.46z"></path>
<path d="M16.040 7.78c-4.52 0-8.22 3.68-8.22 8.22s3.68 8.22 8.22 8.22 8.22-3.68 8.22-8.22c0-4.54-3.68-8.22-8.22-8.22v0zM16.040 21.32c-2.94 0-5.32-2.38-5.32-5.32 0-2.96 2.38-5.34 5.32-5.34 2.96 0 5.34 2.38 5.34 5.34 0 2.94-2.38 5.32-5.34 5.32zM26.52 7.44c0 1.060-0.86 1.92-1.92 1.92s-1.92-0.86-1.92-1.92v0c0-1.060 0.86-1.92 1.92-1.92s1.92 0.86 1.92 1.92v0z"></path>
</symbol>
<symbol id="icon-linkedin" viewBox="0 0 32 32">
<path d="M31.98 32v-0.020h0.020v-11.72c0-5.74-1.24-10.18-7.96-10.18-3.22 0-5.38 1.78-6.28 3.46h-0.080v-2.92h-6.38v21.36h6.64v-10.56c0-2.8 0.52-5.48 3.98-5.48 3.4 0 3.44 3.18 3.44 5.64v10.42h6.62zM0.52 10.62h6.64v21.36h-6.64v-21.36zM3.84-0.020c-2.12 0-3.84 1.74-3.84 3.86s1.72 3.88 3.84 3.88 3.84-1.76 3.84-3.88-1.72-3.86-3.84-3.86z"></path>
</symbol>
<symbol id="icon-oclock" viewBox="0 0 31 32">
<path d="M30.295 15.3c-0.005-8.455-6.855-15.305-15.31-15.3-8.45 0-15.3 6.855-15.3 15.305 0 6.66 4.305 12.55 10.65 14.575 0.060 0.020 0.125 0.030 0.185 0.030 0.12 0 0.24-0.030 0.345-0.095 0.135-0.080 0.235-0.205 0.28-0.355l3.865-12.25c1.053-0.004 1.905-0.858 1.905-1.912 0-0.005-0-0.009-0-0.014v0.001c-0.006-1.051-0.859-1.9-1.911-1.9-0.005 0-0.010 0-0.015 0h0.001c-0.28 0-0.565 0.065-0.82 0.19l-5.105-5.105c-0.25-0.245-0.655-0.24-0.9 0.015-0.24 0.245-0.24 0.64 0 0.885l5.105 5.11c-0.395 0.8-0.17 1.765 0.535 2.31l-3.685 11.67c-7.275-2.68-11.005-10.755-8.32-18.030 2.68-7.28 10.75-11.005 18.030-8.325s11.005 10.755 8.325 18.035c-1.346 3.58-4.006 6.404-7.377 7.934l-0.088 0.036-0.395-1.875c-0.075-0.34-0.415-0.565-0.76-0.49-0.105 0.025-0.205 0.075-0.29 0.15l-3.835 3.425c-0.133 0.117-0.216 0.287-0.216 0.477 0 0.163 0.061 0.311 0.162 0.423l-0.001-0.001c0.075 0.085 0.175 0.15 0.285 0.185l4.9 1.56c0.059 0.020 0.126 0.031 0.197 0.031 0.35 0 0.634-0.284 0.634-0.634 0-0.049-0.006-0.096-0.016-0.142l0.001 0.004-0.39-1.835c5.529-2.377 9.33-7.777 9.33-14.064 0-0.009 0-0.018-0-0.027v0.001zM14.99 14.66c0.35 0 0.635 0.285 0.635 0.64 0 0.35-0.285 0.635-0.635 0.635-0.352 0-0.637-0.285-0.637-0.637s0.285-0.637 0.637-0.637v0zM17.090 29.525l2.185-1.95 0.6 2.84-2.785-0.89z"></path>
</symbol>
<symbol id="icon-laptop" viewBox="0 0 42 32">
<path d="M2.083 31.726h33.424c1.151-0.004 2.083-0.938 2.083-2.090 0 0 0 0 0 0v0-2.789c0-1.149-0.934-2.083-2.083-2.083h-0.699v-17.365l3.958-3.749c0.914 0.457 2.025 0.176 2.625-0.647 0.601-0.829 0.516-1.972-0.196-2.704-0.382-0.39-0.915-0.633-1.504-0.633-0.446 0-0.86 0.139-1.2 0.376l0.007-0.005c-0.551 0.386-0.907 1.017-0.907 1.732 0 0.322 0.072 0.626 0.201 0.899l-0.005-0.013-2.978 2.821v-1.607c0-1.149-0.934-2.090-2.090-2.090h-27.847c-1.156 0-2.090 0.94-2.090 2.090v20.891h-0.699c-1.149 0-2.083 0.934-2.083 2.083v2.789c0 0 0 0 0 0 0 1.152 0.932 2.086 2.083 2.090h0zM39.68 1.091c0.385 0 0.699 0.313 0.699 0.692 0 0.385-0.313 0.699-0.699 0.699s-0.692-0.313-0.692-0.699c0-0.379 0.307-0.692 0.692-0.692zM4.173 3.873c0-0.385 0.313-0.692 0.699-0.692h27.847c0.385 0 0.699 0.307 0.699 0.692v2.926l-1.391 1.326v-2.86c0-0.379-0.313-0.692-0.699-0.692h-25.064c-0.385 0-0.699 0.313-0.699 0.692v17.411c0 0.385 0.313 0.692 0.699 0.692h25.064c0.385 0 0.699-0.307 0.699-0.692v-12.637l1.391-1.319v16.046h-29.244v-20.891zM10.442 12.924c-0.947 0-1.77 0.627-2.024 1.535-0.248 0.908 0.137 1.868 0.947 2.351s1.842 0.359 2.521-0.294l2.423 1.215c0.281 0.137 0.62 0.072 0.829-0.163l5.146-5.786 5.055 3.788c0.274 0.202 0.653 0.183 0.895-0.052l4.395-4.16v10.619h-23.667v-16.013h23.667v3.474l-4.924 4.663-5.1-3.82c-0.287-0.216-0.699-0.176-0.934 0.091l-5.218 5.871-1.953-0.973c0.020-0.085 0.026-0.17 0.026-0.255 0-1.156-0.934-2.090-2.083-2.090zM11.135 15.014c0 0.385-0.307 0.699-0.692 0.699-0.373-0.017-0.669-0.323-0.669-0.699s0.296-0.682 0.668-0.699l0.002-0c0.385 0 0.692 0.313 0.692 0.699zM15.314 26.155h6.962v0.692c0 0.385-0.313 0.699-0.699 0.699h-5.564c-0.385 0-0.699-0.313-0.699-0.699v-0.692zM1.391 26.847c0-0.379 0.307-0.692 0.692-0.692h11.84v0.692c0 1.156 0.934 2.090 2.090 2.090h5.564c1.156 0 2.090-0.934 2.090-2.090v-0.692h11.84c0.385 0 0.692 0.313 0.692 0.692v2.789c0 0.385-0.307 0.692-0.692 0.692h-33.424c-0.385 0-0.692-0.307-0.692-0.692v-2.789z"></path>
</symbol>
<symbol id="icon-cosmonaut" viewBox="0 0 29 32">
<path d="M28.24 13.32c-0.32-0.429-0.796-0.726-1.343-0.804l-0.011-0.001c-0.085-0.012-0.183-0.020-0.283-0.020-0.472 0-0.907 0.16-1.253 0.429l0.005-0.003-1.434 1.097-2.166 1.617-1.554-0.617c2.771-1.24 4.703-4.011 4.703-7.223 0-4.366-3.571-7.926-7.954-7.926-4.389 0-7.954 3.56-7.954 7.926 0 1.583 0.469 3.057 1.28 4.297l-3.166-0.029c-0.011 0-0.017 0.006-0.029 0.006-0.057 0-0.12 0.017-0.177 0.034-0.011 0.006-0.029 0.011-0.046 0.017-0.006 0-0.011 0-0.017 0.006l-3.697 1.823-2.166 1.046c-0.023 0.006-0.046 0.023-0.074 0.040-0.549 0.37-0.905 0.989-0.905 1.692 0 0.908 0.595 1.677 1.416 1.939l0.014 0.004c0.206 0.069 0.411 0.097 0.617 0.097 0.331 0 0.657-0.080 0.96-0.24l1.583-0.846 2.589-1.337 1.549-0.006-7.749 7.714c-0.346 0.344-0.559 0.82-0.559 1.346s0.214 1.002 0.559 1.346l0 0c0.371 0.371 0.857 0.554 1.349 0.554 0.486 0 0.977-0.183 1.349-0.554l1.503-1.497 1.989-1.486 1.029 1.029-2.011 2.006h-0.006l-1.526 1.52c-0.346 0.34-0.56 0.813-0.56 1.336 0 0.004 0 0.009 0 0.013v-0.001c0 0.509 0.194 0.989 0.56 1.349 0.346 0.343 0.823 0.554 1.349 0.554s1.002-0.212 1.349-0.554l-0 0 5.131-5.109-0.006-0.006c0.011-0.006 0.023-0.006 0.029-0.017l5.903-6.463 3.966 0.56c0.029 0.006 0.057 0.006 0.086 0.006 0.074 0 0.149-0.017 0.217-0.040 0.017-0.011 0.034-0.017 0.057-0.029 0.017-0.011 0.046-0.017 0.063-0.029l3.674-2.44c0.011-0.011 0.017-0.023 0.034-0.034 0.011-0.011 0.029-0.017 0.046-0.029l1.451-1.36c0.397-0.372 0.644-0.9 0.644-1.486 0-0.459-0.152-0.882-0.408-1.223l0.004 0.005zM2.434 17.451c-0.112 0.060-0.245 0.096-0.387 0.096-0.32 0-0.597-0.181-0.736-0.445l-0.002-0.005c-0.189-0.354-0.080-0.794 0.24-1.029l1.503-0.72 0.36 1.051 0.154 0.446-1.131 0.606zM6.429 15.36l-1.771 0.914-0.291-0.851-0.206-0.617 2.314-1.143-0.046 1.697zM23.686 7.794c0 1.051-0.251 2.040-0.686 2.926l-4.777-2.171c-0.050-0.659-0.392-1.228-0.896-1.584l-0.007-0.004 1.674-5.554c2.72 0.869 4.691 3.4 4.691 6.389zM10.211 7.794c0-3.697 3.023-6.703 6.737-6.703 0.291 0 0.571 0.023 0.851 0.057l-1.634 5.434c-0.023 0-0.046-0.006-0.069-0.006-1.177 0-2.137 0.954-2.137 2.131s0.96 2.131 2.137 2.131c0.794 0 1.48-0.434 1.851-1.080l4.411 2.006c-1.229 1.657-3.194 2.731-5.411 2.731-3.714 0-6.737-3.006-6.737-6.703zM17.017 8.709c0 0.503-0.411 0.914-0.92 0.914s-0.92-0.411-0.92-0.914c0-0.503 0.411-0.914 0.92-0.914s0.92 0.411 0.92 0.914zM2.811 25.88c-0.125 0.123-0.296 0.199-0.486 0.199-0.38 0-0.688-0.306-0.691-0.685v-0c0-0.183 0.074-0.349 0.206-0.48l1.097-1.097 0.971 0.971-1.097 1.091zM6.486 30.143c-0.269 0.269-0.709 0.269-0.977 0.006-0.122-0.125-0.199-0.296-0.2-0.485v-0c0-0.183 0.074-0.354 0.2-0.48l1.103-1.097 0.457 0.457 0.514 0.509-1.097 1.091zM10.469 26.183h-0.006l-2.017 2.011-0.971-0.971 2.017-2.006c0.046-0.046 0.074-0.103 0.103-0.154 0.006-0.017 0.023-0.029 0.029-0.046 0.017-0.046 0.023-0.097 0.029-0.149 0.006-0.029 0.017-0.051 0.017-0.080 0-0.040-0.017-0.080-0.023-0.12s-0.006-0.074-0.023-0.114c-0.023-0.057-0.063-0.103-0.103-0.154-0.011-0.011-0.017-0.029-0.029-0.046l-1.84-1.829c-0.017-0.017-0.046-0.029-0.063-0.046-0.029-0.021-0.063-0.041-0.098-0.060l-0.005-0.003c-0.034-0.017-0.069-0.029-0.103-0.040-0.040-0.011-0.080-0.017-0.12-0.023-0.040 0-0.074 0.006-0.109 0.006-0.040 0.006-0.080 0.011-0.12 0.023s-0.074 0.034-0.109 0.051c-0.023 0.017-0.046 0.017-0.069 0.034l-2.029 1.514-1.029-1.029 2.743-2.726 4.983 4.903-1.057 1.051zM18.257 18.16c-0.017 0-0.034 0.006-0.051 0.006-0.046-0.006-0.086 0-0.131 0.006-0.036 0.004-0.069 0.014-0.099 0.029l0.002-0.001c-0.040 0.011-0.074 0.029-0.114 0.051-0.034 0.023-0.063 0.040-0.091 0.069-0.017 0.011-0.034 0.017-0.046 0.034l-5.371 5.88-4.949-4.863 3.24-3.223c0.24-0.234 0.24-0.623 0-0.863-0.12-0.12-0.274-0.177-0.434-0.177l-2.537 0.017 0.034-1.84 3.549 0.029c1.446 1.48 3.463 2.406 5.691 2.406 0.497 0 0.989-0.051 1.463-0.143 0.046 0.034 0.091 0.074 0.149 0.097l2.754 1.097 0.171 0.869 0.206 1.011-3.434-0.491zM22.88 18.366l-0.36-1.783 1.651-1.234 0.434 0.577 0.651 0.863-2.377 1.577zM27.166 15.131l-0.954 0.897-1.069-1.411 0.954-0.731c0.177-0.137 0.4-0.194 0.617-0.166 0.223 0.034 0.417 0.149 0.549 0.326 0.251 0.337 0.206 0.8-0.097 1.086z"></path>
</symbol>
<symbol id="icon-twitter" viewBox="0 0 39 32">
<path d="M39.385 2.535c-1.477 0.64-3.028 1.083-4.652 1.28 1.674-0.985 2.929-2.56 3.545-4.455-1.575 0.935-3.298 1.575-5.12 1.945-1.477-1.575-3.594-2.56-5.908-2.56-4.462 0.014-8.074 3.634-8.074 8.098 0 0 0 0 0 0v0c0 0.64 0.074 1.255 0.197 1.822-6.73-0.334-12.651-3.537-16.607-8.401l-0.033-0.042c-0.689 1.206-1.108 2.609-1.108 4.086 0 2.806 1.452 5.268 3.594 6.72-1.305-0.025-2.585-0.418-3.643-1.009v0.098c0 3.914 2.782 7.188 6.449 7.926-0.64 0.172-1.354 0.271-2.117 0.271-0.517 0-1.034-0.025-1.526-0.148 1.058 3.2 4.012 5.563 7.557 5.637-2.757 2.142-6.252 3.446-10.018 3.446-0.665 0-1.305-0.025-1.92-0.123 3.569 2.314 7.803 3.618 12.382 3.618 14.843 0 22.966-12.308 22.966-22.966 0-0.345 0-0.689-0.025-1.034 1.6-1.157 2.954-2.56 4.062-4.209z"></path>
</symbol>
<symbol id="icon-facebook" viewBox="0 0 16 32">
<path d="M11.32 5.3h2.92v-5.080c-0.5-0.080-2.24-0.24-4.26-0.24-4.2 0-7.1 2.66-7.1 7.52v4.48h-4.64v5.7h4.64v14.3h5.7v-14.3h4.46l0.72-5.68h-5.18v-3.92c0-1.66 0.44-2.78 2.74-2.78z"></path>
</symbol>
<symbol id="icon-plate" viewBox="0 0 30 32">
<path d="M29.27 22.095l-8.445-8.505 0.94-4.615c0.24 0.095 0.5 0.145 0.76 0.145h0.005c1.19 0.015 2.17-0.94 2.185-2.135 0-0.008 0-0.018 0-0.027 0-1.183-0.954-2.143-2.134-2.153h-0.001c-0.008-0-0.016-0-0.025-0-1.182 0-2.143 0.95-2.16 2.129l-0 0.002c0 0.255 0.040 0.51 0.125 0.75l-4.96 0.605-8.090-8.13c-0.1-0.105-0.235-0.16-0.375-0.16s-0.275 0.055-0.375 0.155l-1.51 1.5c-0.21 0.21-0.21 0.55 0 0.755l0.81 0.825c-3.15 5.8-2.125 12.98 2.52 17.665 0.045 0.040 0.095 0.075 0.145 0.095-0.030 0.18-0.050 0.365-0.050 0.55v6.185h-6.4c-1.472 0.004-2.664 1.198-2.665 2.67v1.065c0 0.295 0.235 0.535 0.53 0.535h24.535c0.295 0 0.535-0.24 0.535-0.535v-1.065c-0.003-1.473-1.197-2.667-2.67-2.67h-6.4v-2.74c1.005 0.21 2.025 0.315 3.050 0.32 2.46-0.005 4.875-0.615 7.040-1.785l0.82 0.825c0.1 0.1 0.235 0.155 0.375 0.16 0.14 0 0.275-0.060 0.375-0.155l1.51-1.505c0.21-0.21 0.21-0.545 0-0.755zM21.775 6.23c0.42-0.415 1.095-0.415 1.51 0.005 0.192 0.193 0.311 0.459 0.311 0.753 0 0.589-0.477 1.066-1.066 1.067h-0.005c-0.587-0.003-1.061-0.48-1.061-1.067 0-0.296 0.121-0.565 0.316-0.758l0-0h-0.005zM20.52 9.735l-0.595 2.945-1.175-1.18 1.77-1.765zM19.915 8.835l-1.92 1.905-1.485-1.49 3.405-0.415zM22.5 28.8c0.885 0 1.6 0.715 1.6 1.6v0.53h-23.465v-0.53c0-0.885 0.715-1.6 1.6-1.6h20.265zM15.035 26.665v1.065h-5.335v-1.065h5.335zM9.7 25.6v-4.055c0-1.295 1.2-2.345 2.67-2.345s2.665 1.050 2.665 2.345v4.055h-5.335zM16.1 23.9v-2.355c0-1.885-1.675-3.415-3.73-3.415-0.016-0-0.035-0-0.054-0-1.355 0-2.545 0.706-3.222 1.77l-0.009 0.015c-2.358-2.481-3.809-5.844-3.809-9.546 0-2.315 0.567-4.497 1.57-6.416l-0.036 0.076 18.6 18.71c-1.822 0.946-3.978 1.5-6.263 1.5-1.080 0-2.132-0.124-3.14-0.358l0.093 0.018zM27.39 23.22l-0.75-0.76-20.305-20.425 0.755-0.75 21.055 21.18-0.755 0.755z"></path>
</symbol>
<symbol id="icon-close-black" viewBox="0 0 32 32">
<path d="M32 3.2l-3.24-3.2-12.76 12.76-12.8-12.76-3.2 3.2 12.76 12.8-12.76 12.76 3.2 3.24 12.8-12.8 12.76 12.8 3.24-3.24-12.8-12.76 12.8-12.8z"></path>
</symbol>
<symbol id="icon-phone" viewBox="0 0 32 32">
<path d="M28.849 21.809l-4.529-0.517c-1.083-0.123-2.142 0.246-2.905 1.009l-3.298 3.274c-5.068-2.62-9.097-6.649-11.647-11.568l-0.070-0.149 3.274-3.298c0.788-0.763 1.157-1.846 1.034-2.929l-0.517-4.48c-0.205-1.781-1.704-3.151-3.523-3.151-0.008 0-0.015 0-0.023 0h-3.076c-2.018 0-3.692 1.674-3.569 3.668 0.935 15.212 13.095 27.372 28.308 28.308 1.994 0.123 3.668-1.551 3.668-3.545v-3.102c0-0.007 0-0.014 0-0.022 0-1.805-1.359-3.293-3.11-3.496l-0.016-0.002z"></path>
</symbol>
<symbol id="icon-name" viewBox="0 0 32 32">
<path d="M16 16c4.4 0 8-3.6 8-8 0-4.427-3.6-8-8-8-4.427 0-8 3.573-8 8 0 4.4 3.573 8 8 8zM16 20c-5.36 0-16 2.667-16 8v2c0 1.093 0.88 2 2 2h28c1.093 0 2-0.907 2-2v-2c0-5.333-10.667-8-16-8z"></path>
</symbol>
<symbol id="icon-email" viewBox="0 0 40 32">
<path d="M34.667 0h-32c-2.213 0-4 1.787-4 4v24c0 2.187 1.787 4 4 4h32c2.187 0 4-1.813 4-4v-24c0-2.213-1.813-4-4-4zM33.867 8.48l-14.16 8.853c-0.299 0.188-0.663 0.3-1.053 0.3s-0.754-0.112-1.062-0.305l0.008 0.005-14.133-8.853c-0.483-0.303-0.8-0.832-0.8-1.436 0-0.002 0-0.003 0-0.005v0c0-1.333 1.44-2.133 2.587-1.44l13.413 8.4 13.387-8.4c1.147-0.693 2.613 0.107 2.613 1.44 0 0.587-0.32 1.12-0.8 1.44z"></path>
</symbol>
<symbol id="icon-done" viewBox="0 0 40 32">
<path d="M33.76 1c0.68-0.68 1.6-1.040 2.56-1 0.009-0 0.019-0 0.029-0 0.987 0 1.881 0.397 2.532 1.040l-0-0c0.68 0.68 1.080 1.6 1.080 2.56 0.040 0.96-0.32 1.88-0.96 2.6l-19.56 24.6c-0.36 0.36-0.76 0.64-1.2 0.84-0.44 0.24-0.92 0.32-1.44 0.32-0.046 0.002-0.1 0.003-0.154 0.003-0.463 0-0.905-0.089-1.31-0.252l0.024 0.008c-0.44-0.2-0.88-0.48-1.24-0.84l-12.96-13.040c-0.364-0.331-0.66-0.73-0.87-1.177l-0.010-0.023c-0.177-0.409-0.28-0.884-0.28-1.384 0-0.020 0-0.039 0-0.059l-0 0.003c-0.002-0.046-0.003-0.1-0.003-0.154 0-0.463 0.089-0.905 0.252-1.31l-0.008 0.024c0.2-0.48 0.48-0.88 0.8-1.24 0.36-0.36 0.8-0.64 1.24-0.8 0.412-0.178 0.891-0.281 1.394-0.281 0.539 0 1.049 0.118 1.508 0.331l-0.022-0.009c0.44 0.2 0.84 0.48 1.2 0.84l10.28 10.32 17.040-21.8c0-0.040 0.040-0.080 0.080-0.12z"></path>
</symbol>
</defs>
</svg>
